<svg display="none" xmlns="http://www.w3.org/2000/svg">
  <symbol id="fb" viewBox="0 0 44 44">
    <path d="M38.8438 0H5.15625C2.31309 0 0 2.31309 0 5.15625V38.8438C0 41.6869 2.31309 44 5.15625 44H38.8438C41.6869 44 44 41.6869 44 38.8438V5.15625C44 2.31309 41.6869 0 38.8438 0ZM40.5625 38.8438C40.5625 39.7915 39.7915 40.5625 38.8438 40.5625H29.0469V26.5547H34.357L35.2344 21.2266H29.0469V17.5312C29.0469 16.0725 30.1662 14.9531 31.625 14.9531H35.1484V9.625H31.625C27.2488 9.625 23.7206 13.1699 23.7206 17.5462V21.2266H18.5625V26.5547H23.7206V40.5625H5.15625C4.20853 40.5625 3.4375 39.7915 3.4375 38.8438V5.15625C3.4375 4.20853 4.20853 3.4375 5.15625 3.4375H38.8438C39.7915 3.4375 40.5625 4.20853 40.5625 5.15625V38.8438Z" fill="#2352DE"/>
  </symbol>

  <symbol id="insta" viewBox="0 0 44 44">
    <path d="M31.2188 0H12.7813C5.73366 0 0 5.73366 0 12.7813V31.2187C0 38.2663 5.73366 44 12.7813 44H31.2187C38.2663 44 44 38.2663 44 31.2188V12.7813C44 5.73366 38.2663 0 31.2188 0ZM40.5625 31.2187C40.5625 36.3709 36.3709 40.5625 31.2188 40.5625H12.7813C7.6291 40.5625 3.4375 36.3709 3.4375 31.2188V12.7813C3.4375 7.6291 7.6291 3.4375 12.7813 3.4375H31.2187C36.3709 3.4375 40.5625 7.6291 40.5625 12.7813V31.2187Z" fill="#2352DE"/>
    <path d="M22 10.1406C15.4607 10.1406 10.1406 15.4607 10.1406 22C10.1406 28.5393 15.4607 33.8594 22 33.8594C28.5393 33.8594 33.8594 28.5393 33.8594 22C33.8594 15.4607 28.5393 10.1406 22 10.1406ZM22 30.4219C17.3562 30.4219 13.5781 26.6438 13.5781 22C13.5781 17.3562 17.3562 13.5781 22 13.5781C26.6438 13.5781 30.4219 17.3562 30.4219 22C30.4219 26.6438 26.6438 30.4219 22 30.4219Z" fill="#2352DE"/>
    <path d="M34.0312 11.6875C34.9805 11.6875 35.75 10.918 35.75 9.96875C35.75 9.01951 34.9805 8.25 34.0312 8.25C33.082 8.25 32.3125 9.01951 32.3125 9.96875C32.3125 10.918 33.082 11.6875 34.0312 11.6875Z" fill="#2352DE"/>
  </symbol>

  <symbol id="teleg" viewBox="0 0 44 44">
    <path d="M43.3206 4.37073C42.7831 3.71344 41.9781 3.35156 41.0536 3.35156C40.5511 3.35156 40.0187 3.45731 39.4715 3.66644L2.22633 17.8841C0.249764 18.6384 -0.0164409 19.7703 0.000679409 20.3779C0.0177997 20.9855 0.347786 22.1007 2.36396 22.7422C2.37605 22.7459 2.38813 22.7496 2.40022 22.753L10.1259 24.9638L14.3039 36.9112C14.8736 38.5399 16.1522 39.5517 17.6414 39.5517C18.5803 39.5517 19.5038 39.1583 20.3121 38.4144L25.0907 34.0145L32.0218 39.5954C32.0225 39.596 32.0235 39.5964 32.0241 39.597L32.0899 39.6501C32.096 39.6548 32.1024 39.6598 32.1084 39.6645C32.8788 40.2621 33.7197 40.5776 34.5412 40.5779H34.5415C36.1465 40.5779 37.4244 39.3899 37.7967 37.5517L43.8993 7.41849C44.1444 6.20898 43.9389 5.12671 43.3206 4.37073V4.37073ZM12.7104 24.5439L27.6155 16.9294L18.3346 26.791C18.1825 26.9525 18.0747 27.1502 18.0217 27.3654L16.2321 34.6143L12.7104 24.5439ZM18.5655 36.5177C18.5038 36.5745 18.4417 36.6251 18.3796 36.6718L20.0399 29.9472L23.0601 32.3793L18.5655 36.5177ZM41.3725 6.90655L35.27 37.0401C35.2112 37.3284 35.0236 37.9995 34.5412 37.9995C34.3028 37.9995 34.0034 37.8696 33.6969 37.6336L25.843 31.3098C25.842 31.3088 25.8407 31.3078 25.8393 31.3071L21.1661 27.544L34.5875 13.2827C35.0172 12.8262 35.0561 12.1269 34.6798 11.6254C34.3032 11.1239 33.6207 10.9661 33.0624 11.2514L10.9879 22.5287L3.1572 20.2883L40.391 6.07504C40.7055 5.95486 40.9251 5.92969 41.0536 5.92969C41.1325 5.92969 41.2728 5.93909 41.3249 6.0032C41.3933 6.08679 41.4806 6.3718 41.3725 6.90655V6.90655Z" fill="#2352DE"/>
    </g>
  </symbol>
</svg>





